<?xml version="1.0" encoding="utf-8"?>
<!-- Generator: Adobe Illustrator 22.0.0, SVG Export Plug-In . SVG Version: 6.00 Build 0)  -->
<svg version="1.1" id="Capa_1" xmlns="http://www.w3.org/2000/svg" xmlns:xlink="http://www.w3.org/1999/xlink" x="0px" y="0px"
	 viewBox="0 0 512 512" style="enable-background:new 0 0 512 512;" xml:space="preserve">
<style type="text/css">
	.st0{fill:#2e86de;}
	.st1{enable-background:new    ;}
	.st2{fill:#FFFFFF;}
</style>
<path class="st0" d="M466.7,110.5c27.3,39.4,43.9,86.7,45.4,137.9c0.1,2.6,0.1,5.2,0.1,7.9c0,25.3-3.7,49.6-10.5,72.7
	c-21.9,74.1-76.4,134.2-147,163.7c-30.3,12.7-63.6,19.7-98.6,19.7c-78.1,0-148-34.9-194.9-90c-32.4-38-53.9-85.6-59.6-137.9
	c-1-9.2-1.5-18.6-1.5-28.1c0-141.4,114.6-256,256-256C343.4,0.2,420.5,43.9,466.7,110.5z"/>
<g class="st1">
	<path class="st2" d="M267.1,127.2c-7.6,30-21.5,60.8-41.2,92.6c22.4,34,59.5,66.2,84.1,85c4.9,4,4.9,8.9-0.4,15.2l-21,26.4
		c-4.9,5.8-10.7,3.1-18.3-2.2c-19.2-13.4-54.6-48.3-77.4-78.3c-30.4,37.6-67.6,72-110.1,98.9c-5.4,3.6-7.6,3.1-12.5-2.7l-21-28.2
		c-4.9-6.7-2.7-9.8,2.7-13.4c68.9-47.9,126.6-119,149-186.6c1.8-5.8-0.4-8.9-7.2-8.9H85.5c-8.5,0-8.5-3.6-8.5-9.4V83.4
		c0-7.2,2.2-9.4,8.9-9.4h147.6c23.3,0,37.1,10.3,37.1,30C270.7,112.5,268.9,120.1,267.1,127.2z M452,254h-56v210.4
		c0,7.2-1.4,8.6-8.2,8.6h-45.8c-6.8,0-9.1-1.4-9.1-8.6V49.6c0-4.7,3.8-8.6,8.6-8.6h46.3c4.5,0,8.1,3.6,8.1,8.1V203h56
		c5.4,0,9,0,9,8.5v34C461,252.7,457.4,254,452,254z"/>
</g>
</svg>
