<?xml version="1.0" encoding="utf-8"?>
<!-- Generator: Adobe Illustrator 22.0.0, SVG Export Plug-In . SVG Version: 6.00 Build 0)  -->
<svg version="1.1" id="Layer_1" xmlns="http://www.w3.org/2000/svg" xmlns:xlink="http://www.w3.org/1999/xlink" x="0px" y="0px"
	 viewBox="0 0 512 512" style="enable-background:new 0 0 512 512;" xml:space="preserve">
<g>
	<path d="M459.8,32h-34.1V16c0-8.8-7.6-16-17-16s-17,7.2-17,16v16h-68.1V16c0-8.8-7.6-16-17-16c-9.4,0-17,7.2-17,16v16h-68.1V16
		c0-8.8-7.6-16-17-16s-17,7.2-17,16v16h-68.1V16c0-8.8-7.6-16-17-16s-17,7.2-17,16v16H51.1C22.9,32,0,53.5,0,80v69.5
		c0,0,108.7,0,118.2,0h76.6c60.7,0,46.2,0,77.7,0c73.4,0,70.9,0,155.4,0h83.2c0.5,0,0.9-0.4,0.9-0.9V77.3C512,51.3,488,32,459.8,32z
		 M476.9,128H34.1V80c0-8.8,7.6-16,17-16h34.1v16c0,8.8,7.6,16,17,16s17-7.2,17-16V64h68.1v16c0,8.8,7.6,16,17,16s17-7.2,17-16V64
		h68.1v16c0,8.8,7.6,16,17,16c9.4,0,17-7.2,17-16V64h68.1v16c0,8.8,7.6,16,17,16s17-7.2,17-16V64h34.1c9.4,0,17,7.2,17,16V128z"/>
</g>
<g>
	<path d="M0,457.3C0,486.9,22.7,511,50.7,511h410.7c27.9,0,50.7-24.1,50.7-53.7V128H0V457.3z"/>
</g>
</svg>
