<?xml version="1.0" encoding="utf-8"?>
<!-- Generator: Adobe Illustrator 22.0.0, SVG Export Plug-In . SVG Version: 6.00 Build 0)  -->
<svg fill="#ff7675" version="1.1" id="layer_1" xmlns="http://www.w3.org/2000/svg" xmlns:xlink="http://www.w3.org/1999/xlink" x="0px"
	 y="0px" viewBox="0 0 512 512" style="enable-background:new 0 0 512 512;" xml:space="preserve">
<path d="M255.9,0.3c-141.2,0-256,114.8-256,256s114.8,256,256,256s256-114.8,256-256S397,0.3,255.9,0.3z M255.9,480.3
	c-123.5,0-224-100.5-224-224s100.5-224,224-224s224,100.5,224,224S379.4,480.3,255.9,480.3z"/>
<path d="M455.8,296.1l-142.8-45.7c-0.3-4.3-1.2-8.4-2.4-12.3c6-2,12.2-4.2,18.5-6.6c56.8-21.4,89.6-45.4,97.3-71.2
	c5.2-17.2-0.3-34.2-16.3-50.7c-12.6-13-40.5-32.4-41.7-33.2c-4.5-3.1-10.6-2-13.8,2.4l-88.3,122.6c-2.3-0.3-4.6-0.5-6.9-0.5
	c-1.6,0-3.2,0.1-4.8,0.2c-0.4-45.1-6-102.7-29.6-128.8c-9.2-10.1-20.4-15.3-33.3-15.3c0,0,0,0,0,0c-8.9,0-18.5,2.5-28.6,7.5
	c-12.5,6.2-31.6,19.8-40.1,26.1c-2.5,1.8-4.1,3.1-4.4,3.3c-2.7,2.1-4.1,5.2-3.9,8.4c0.1,1.9,0.7,3.8,1.9,5.4l92.9,126.7
	c-1,2.5-1.9,5.1-2.5,7.8c-30.4-9.9-68.4-19.7-99.8-19.7c-24.7,0-42.6,6.2-53.2,18.5c-9.4,10.8-12.8,25.8-10.1,44.5
	c2.6,17.9,13.7,50,14.2,51.3c1.4,4.1,5.3,6.7,9.4,6.7c1,0,2.1-0.2,3.1-0.5L222,293.3c1.7,1.6,3.4,3.2,5.3,4.6
	c-5.2,7.2-10.7,15-16.1,23.1c-33.4,50.7-45.8,89.4-36.9,114.8c5.9,16.9,20.4,27.5,43,31.4c11.7,2,30.1,2.4,43.5,2.4
	c5.8,0,9.7-0.1,9.7-0.1c5.4-0.1,9.8-4.6,9.7-10l-0.7-155c3-1.2,5.8-2.7,8.5-4.4c4.4,6,9.1,12.2,14.1,18.4c37.6,47.1,70.3,71,97.2,71
	c12.7,0,30.6-5.4,44.2-31.2c8.4-16,18.3-48.5,18.7-49.9C463.8,303.3,460.9,297.8,455.8,296.1z M259.4,282.3
	c-15.2,0-27.6-12.4-27.6-27.6c0-15.2,12.4-27.6,27.6-27.6c15.2,0,27.6,12.3,27.6,27.6C287,269.9,274.6,282.3,259.4,282.3z"/>
</svg>
