<?xml version="1.0" encoding="utf-8"?>
<!-- Generator: Adobe Illustrator 22.0.0, SVG Export Plug-In . SVG Version: 6.00 Build 0)  -->
<svg version="1.1" id="Capa_1" xmlns="http://www.w3.org/2000/svg" xmlns:xlink="http://www.w3.org/1999/xlink" x="0px" y="0px"
	 viewBox="0 0 512 512" style="enable-background:new 0 0 512 512;" xml:space="preserve">
<style type="text/css">
	.st0{fill:#2e86de;}
	.st1{enable-background:new    ;}
	.st2{fill:#FFFFFF;}
</style>
<path class="st0" d="M466.7,110.5c27.3,39.4,43.9,86.7,45.4,137.9c0.1,2.6,0.1,5.2,0.1,7.9c0,25.3-3.7,49.6-10.5,72.7
	c-21.9,74.1-76.4,134.2-147,163.7c-30.3,12.7-63.6,19.7-98.6,19.7c-78.1,0-148-34.9-194.9-90c-32.4-38-53.9-85.6-59.6-137.9
	c-1-9.2-1.5-18.6-1.5-28.1c0-141.4,114.6-256,256-256C343.4,0.2,420.5,43.9,466.7,110.5z"/>
<g class="st1">
	<path class="st2" d="M445.1,316.2h-162v144c0,5.9-3.1,9-9,9h-44.5c-5.9,0-9-3.1-9-9v-144h-162c-7.6,0-9-3.6-9-10.3v-31
		c0-6.8,1.4-9.9,9-9.9h386.5c6.3,0,9.4,3.1,9.4,9.9v31C454.5,312.6,451.4,316.2,445.1,316.2z M108.9,237.5c-4.1,1.3-7.2,1.3-8.6,0.5
		c-1.8-1.4-3.1-4.5-4.5-6.3l-16.6-32.9c-2.2-4.9-0.4-8.5,5.9-10.8c86.8-28.8,129.6-76.9,136.8-139.5c1.3-8.5,1.8-9,10.3-8.5
		l40.9,1.8c6.8,0.4,10.4,3.6,9.9,9.4c-0.4,7.6-0.9,14.9-2.3,22c20.7,45.9,78.3,86.4,139.5,104.4c8.5,2.3,7.6,6.3,4.5,13.5L410,222.6
		c-1.3,1.3-1.8,4-3.1,5.4c-1.4,0.5-3.2,1.4-7.2,0c-50.8-9.5-112-47.7-144.4-90.9C224.1,185.3,170.6,219,108.9,237.5z"/>
</g>
</svg>
