<svg fill="#aeb2b7" id="Capa_1" enable-background="new 0 0 511.718 511.718" height="512" viewBox="0 0 511.718 511.718" width="512" xmlns="http://www.w3.org/2000/svg"><path d="m255.859 0-255.176 209.198 19.02 23.2 15.993-13.112v292.432h440.164v-292.566l16.157 13.246 19.02-23.2zm-15 182.205h30v136.157h-30zm15 246.986c-61.112 0-110.83-49.718-110.83-110.829 0-44.641 26.568-84.723 67.685-102.114l11.687 27.631c-29.992 12.686-49.372 41.922-49.372 74.483 0 44.569 36.26 80.829 80.83 80.829s80.83-36.26 80.83-80.829c0-33.423-20.083-62.947-51.165-75.217l11.016-27.904c20.452 8.074 37.905 21.927 50.471 40.062 12.873 18.578 19.678 40.384 19.678 63.06 0 61.11-49.718 110.828-110.83 110.828z"/></svg>