<svg fill="#797979" height="512pt" viewBox="-141 0 512 512" width="512pt" xmlns="http://www.w3.org/2000/svg"><path d="m130.28125 344.214844v-139.960938c0-8.382812-6.796875-15.179687-15.179688-15.179687-8.382812 0-15.175781 6.796875-15.175781 15.179687v139.960938c-22.875 6.601562-39.65625 27.710937-39.65625 52.683594 0 30.234374 24.597657 54.832031 54.832031 54.832031 30.234376 0 54.835938-24.597657 54.835938-54.832031 0-24.972657-16.785156-46.082032-39.65625-52.683594zm-15.179688 77.160156c-13.496093 0-24.476562-10.980469-24.476562-24.476562 0-13.5 10.980469-24.480469 24.476562-24.480469 13.496094 0 24.480469 10.984375 24.480469 24.480469 0 13.496093-10.980469 24.476562-24.480469 24.476562zm0 0"/><path d="m188.351562 308.113281v-234.867187c0-40.386719-32.859374-73.246094-73.25-73.246094-40.386718 0-73.246093 32.859375-73.246093 73.246094v234.867187c-26.347657 21.773438-41.855469 54.398438-41.855469 88.785157 0 63.464843 51.636719 115.101562 115.101562 115.101562 63.46875 0 115.105469-51.636719 115.105469-115.101562 0-34.386719-15.511719-67.011719-41.855469-88.785157zm-73.25 173.53125c-46.726562 0-84.746093-38.019531-84.746093-84.746093 0-27.289063 13.273437-53.078126 35.507812-68.980469 3.984375-2.851563 6.347657-7.449219 6.347657-12.347657v-242.324218c0-23.648438 19.242187-42.890625 42.890624-42.890625 23.652344 0 42.894532 19.242187 42.894532 42.890625v242.324218c0 4.898438 2.363281 9.496094 6.347656 12.347657 22.234375 15.902343 35.507812 41.691406 35.507812 68.980469 0 46.726562-38.019531 84.746093-84.75 84.746093zm0 0"/></svg>