<svg fill="#797979" height="512pt" viewBox="0 0 512 512" width="512pt" xmlns="http://www.w3.org/2000/svg"><path d="m123.585938 105.929688h335.449218c29.25 0 52.964844-23.710938 52.964844-52.964844 0-29.25-23.714844-52.964844-52.964844-52.964844h-406.070312c-29.242188.0234375-52.9414065 23.722656-52.964844 52.964844v282.484375c.0234375 29.242187 23.722656 52.941406 52.964844 52.964843h105.933594c9.738281.027344 17.625 7.917969 17.652343 17.65625v52.964844h35.3125v-52.964844c-.023437-29.242187-23.722656-52.945312-52.964843-52.96875h-105.933594c-9.738282-.027343-17.625-7.914062-17.65625-17.652343v-282.484375c.03125-9.738282 7.917968-17.625 17.65625-17.65625h406.070312c9.71875.074218 17.582032 7.9375 17.65625 17.65625-.03125 9.738281-7.917968 17.628906-17.65625 17.65625h-335.449218c-29.234376.042968-52.921876 23.730468-52.964844 52.964844.023437 29.242187 23.722656 52.941406 52.964844 52.964843h335.449218c9.71875.070313 17.582032 7.933594 17.65625 17.65625-.03125 9.738281-7.917968 17.625-17.65625 17.65625h-335.449218c-29.234376.042969-52.921876 23.730469-52.964844 52.964844.023437 29.242187 23.722656 52.941406 52.964844 52.964844h335.449218c9.71875.070312 17.582032 7.933593 17.65625 17.65625-.03125 9.738281-7.917968 17.625-17.65625 17.652343h-97.105468c-29.242188.023438-52.941407 23.726563-52.964844 52.96875v52.964844h35.3125v-52.964844c.027344-9.738281 7.914062-17.628906 17.652344-17.65625h97.105468c29.234375-.042968 52.921875-23.730468 52.964844-52.964843-.023438-29.242188-23.722656-52.945313-52.964844-52.964844h-335.449218c-9.722657-.074219-17.585938-7.933594-17.65625-17.65625.03125-9.738281 7.917968-17.628906 17.65625-17.65625h335.449218c29.234375-.042969 52.921875-23.730469 52.964844-52.964844-.023438-29.242187-23.722656-52.941406-52.964844-52.964843h-335.449218c-9.722657-.070313-17.585938-7.933594-17.65625-17.65625.03125-9.738282 7.917968-17.625 17.65625-17.65625zm0 0"/><path d="m167.722656 467.863281h52.96875c9.75 0 17.652344 7.902344 17.652344 17.652344v8.828125c0 9.75-7.902344 17.65625-17.652344 17.65625h-52.96875c-9.75 0-17.652344-7.90625-17.652344-17.65625v-8.828125c0-9.75 7.902344-17.652344 17.652344-17.652344zm0 0"/><path d="m300.136719 467.863281h52.964843c9.753907 0 17.65625 7.902344 17.65625 17.652344v8.828125c0 9.75-7.902343 17.65625-17.65625 17.65625h-52.964843c-9.75 0-17.652344-7.90625-17.652344-17.65625v-8.828125c0-9.75 7.902344-17.652344 17.652344-17.652344zm0 0"/></svg>