<?xml version="1.0" encoding="iso-8859-1"?>
<!-- Generator: Adobe Illustrator 16.0.0, SVG Export Plug-In . SVG Version: 6.00 Build 0)  -->
<!DOCTYPE svg PUBLIC "-//W3C//DTD SVG 1.1//EN" "http://www.w3.org/Graphics/SVG/1.1/DTD/svg11.dtd">
<svg class="active" fill="#10ac84" version="1.1" id="Capa_1" xmlns="http://www.w3.org/2000/svg" xmlns:xlink="http://www.w3.org/1999/xlink" x="0px" y="0px"
	 width="466.546px" height="466.546px" viewBox="0 0 466.546 466.546" style="enable-background:new 0 0 466.546 466.546;"
	 xml:space="preserve"><!-- fill="#28a745 -->
<g>
	<path d="M233.272,0.002C104.443,0.002,0,104.443,0,233.271c0,128.835,104.435,233.272,233.272,233.272
		c128.833,0,233.274-104.445,233.274-233.272C466.546,104.438,362.105,0.002,233.272,0.002z M209.72,61.401
		c0-13.01,10.546-23.552,23.552-23.552c13.01,0,23.55,10.542,23.55,23.552V223.58c0,13.006-10.54,23.554-23.55,23.554
		c-13.006,0-23.552-10.548-23.552-23.554V61.401z M233.272,405.56c-91.006,0-165.046-74.05-165.046-165.05
		c0-59.038,31.897-113.976,83.247-143.338c11.289-6.45,25.677-2.533,32.141,8.756c6.458,11.289,2.533,25.678-8.756,32.138
		c-36.722,21.001-59.528,60.254-59.528,102.444c0,65.036,52.912,117.946,117.942,117.946c65.035,0,117.949-52.91,117.949-117.946
		c0-42.19-22.818-81.443-59.539-102.444c-11.293-6.452-15.216-20.843-8.756-32.138c6.464-11.297,20.847-15.214,32.147-8.756
		c51.347,29.362,83.246,84.284,83.246,143.338C398.32,331.51,324.287,405.56,233.272,405.56z"/>
</g>
<g>
</g>
<g>
</g>
<g>
</g>
<g>
</g>
<g>
</g>
<g>
</g>
<g>
</g>
<g>
</g>
<g>
</g>
<g>
</g>
<g>
</g>
<g>
</g>
<g>
</g>
<g>
</g>
<g>
</g>
</svg>
