<?xml version="1.0" encoding="iso-8859-1"?>
<!-- Generator: Adobe Illustrator 21.0.0, SVG Export Plug-In . SVG Version: 6.00 Build 0)  -->
<svg xmlns="http://www.w3.org/2000/svg" xmlns:xlink="http://www.w3.org/1999/xlink" version="1.1" id="Capa_1" x="0px" y="0px" viewBox="0 0 512 512" style="enable-background:new 0 0 512 512;" xml:space="preserve" width="512" height="512" fill="white">
<g>
	<path d="M166,421c-8.291,0-15,6.709-15,15v61c0,8.291,6.709,15,15,15s15-6.709,15-15v-61C181,427.709,174.291,421,166,421z"/>
	<path d="M286,421c-8.291,0-15,6.709-15,15v61c0,8.291,6.709,15,15,15s15-6.709,15-15v-61C301,427.709,294.291,421,286,421z"/>
	<path d="M406,421c-8.291,0-15,6.709-15,15v61c0,8.291,6.709,15,15,15s15-6.709,15-15v-61C421,427.709,414.291,421,406,421z"/>
	<path d="M46,421c-8.291,0-15,6.709-15,15v61c0,8.291,6.709,15,15,15s15-6.709,15-15v-61C61,427.709,54.291,421,46,421z"/>
	<path d="M321.171,180.527C304.105,143.848,267.353,120,226,120s-78.105,23.848-95.171,60.527C78.49,174.888,31,217.075,31,270   c0,39.058,25.155,72.047,60,84.47V406c0,8.291,6.709,15,15,15s15-6.709,15-15v-46h90v46c0,8.291,6.709,15,15,15s15-6.709,15-15v-46   h90v46c0,8.291,6.709,15,15,15s15-6.709,15-15v-51.528c34.845-12.424,60-45.414,60-84.472   C421,217.075,373.48,174.902,321.171,180.527z"/>
	<path d="M381.171,60.527C364.105,23.848,327.353,0,286,0s-78.105,23.848-95.171,60.527c-52.288-5.588-101.964,36.887-99.509,93.495   c7.178-1.919,14.583-3.212,22.165-3.73C138.212,113.13,180.473,90,226,90s87.803,23.13,112.515,60.293   c45.861,3.144,85.551,33.301,102.988,74.139C465.315,208.224,481,180.917,481,150C481,97.075,433.451,54.946,381.171,60.527z"/>
</g>















</svg>
