<?xml version="1.0" encoding="iso-8859-1"?>
<!-- Generator: Adobe Illustrator 21.0.0, SVG Export Plug-In . SVG Version: 6.00 Build 0)  -->
<svg xmlns="http://www.w3.org/2000/svg" xmlns:xlink="http://www.w3.org/1999/xlink" version="1.1" id="Capa_1" x="0px" y="0px" viewBox="0 0 512.002 512.002" style="enable-background:new 0 0 512.002 512.002;" xml:space="preserve" width="512" height="512" fill="white">
<g>
	<ellipse transform="matrix(0.8444 -0.5357 0.5357 0.8444 -254.4185 118.0348)" cx="75.988" cy="496.999" rx="15" ry="15"/>
	<ellipse transform="matrix(0.8444 -0.5357 0.5357 0.8444 -240.4154 166.2476)" cx="165.988" cy="496.999" rx="15" ry="15"/>
	<ellipse transform="matrix(0.8444 -0.5357 0.5357 0.8444 -226.4122 214.4604)" cx="255.988" cy="496.999" rx="15" ry="15"/>
	<ellipse transform="matrix(0.8444 -0.5357 0.5357 0.8444 -212.4091 262.6732)" cx="345.988" cy="496.999" rx="15" ry="15"/>
	<ellipse transform="matrix(0.8444 -0.5357 0.5357 0.8444 -237.3136 86.9268)" cx="30.988" cy="451.999" rx="15" ry="15"/>
	<ellipse transform="matrix(0.8444 -0.5357 0.5357 0.8444 -223.3105 135.1396)" cx="120.988" cy="451.999" rx="15" ry="15"/>
	<ellipse transform="matrix(0.8444 -0.5357 0.5357 0.8444 -209.3074 183.3524)" cx="210.988" cy="451.999" rx="15" ry="15"/>
	<ellipse transform="matrix(0.8444 -0.5357 0.5357 0.8444 -195.3042 231.5653)" cx="300.988" cy="451.999" rx="15" ry="15"/>
	<path d="M336.187,181.527C319.122,144.848,282.369,121,241.016,121s-78.105,23.848-95.171,60.527   c-52.339-5.64-99.829,36.548-99.829,89.473c0,27.299,12.473,51.497,31.725,68.016l-30.143,60.275   c-3.706,7.412-0.703,16.421,6.709,20.127c7.487,3.718,16.441,0.642,20.127-6.709l29.022-58.033   c10.126,3.955,21.05,6.324,32.56,6.324h20.728l-19.146,38.291c-3.706,7.412-0.703,16.421,6.709,20.127   c7.487,3.718,16.441,0.642,20.127-6.709L190.289,361h56.455l-19.146,38.291c-3.706,7.412-0.703,16.421,6.709,20.127   c7.487,3.718,16.441,0.642,20.127-6.709L280.289,361h56.455l-19.146,38.291c-3.706,7.412-0.703,16.421,6.709,20.127   c7.487,3.718,16.441,0.642,20.127-6.709l28.072-56.146c36.649-11.391,63.51-45.214,63.51-85.563   C436.016,218.075,388.497,175.902,336.187,181.527z"/>
	<path d="M396.187,61.527C379.122,24.848,342.369,0,301.016,0s-78.105,24.848-95.171,61.527   c-52.288-5.588-101.964,36.887-99.509,93.495c7.178-1.919,14.583-3.212,22.165-3.73C153.228,114.13,195.489,91,241.016,91   s87.803,23.13,112.515,60.293c45.861,3.144,85.551,33.301,102.988,74.139c23.813-16.208,39.498-43.515,39.498-74.432   C496.016,98.075,448.467,55.946,396.187,61.527z"/>
</g>















</svg>
