<?xml version="1.0" encoding="utf-8"?>
<!-- Generator: Adobe Illustrator 22.0.0, SVG Export Plug-In . SVG Version: 6.00 Build 0)  -->
<svg version="1.1" id="Capa_1" xmlns="http://www.w3.org/2000/svg" xmlns:xlink="http://www.w3.org/1999/xlink" x="0px" y="0px"
	 viewBox="0 0 512 512" style="enable-background:new 0 0 512 512;" xml:space="preserve">
<style type="text/css">
	.st0{fill:#E8E8E8;}
	.st1{fill:#4BC999;}
</style>
<path class="st0" d="M466.7,110.5c27.3,39.4,43.9,86.7,45.4,137.9c0.1,2.6,0.1,5.2,0.1,7.9c0,25.3-3.7,49.6-10.5,72.7
	c-21.9,74.1-76.4,134.2-147,163.7c-30.3,12.7-63.6,19.7-98.6,19.7c-78.1,0-148-34.9-194.9-90c-32.4-38-53.9-85.6-59.6-137.9
	c-1-9.2-1.5-18.6-1.5-28.1c0-141.4,114.6-256,256-256C343.4,0.2,420.5,43.9,466.7,110.5z"/>
<path class="st1" d="M380.7,214.2l121.1,114.7l0,0c13.9,13.2,13.9,35.4,0,48.6L380.7,492.3c-7.8,7.4-19,6.4-25.9,0.3
	c-3.7-3.3-6.2-8.2-6.2-14v-56.3H61.3c-32.4-38-53.9-85.6-59.6-137.9h346.9V228C348.6,211.3,368.6,202.7,380.7,214.2z"/>
<path class="st1" d="M131.3,299.5L10.2,184.7l0,0c-13.9-13.2-13.9-35.4,0-48.6L131.3,21.3c7.8-7.4,19-6.4,25.9-0.3
	c3.7,3.3,6.2,8.2,6.2,14v56.3h287.3c32.4,38,53.9,85.6,59.6,137.9H163.4v56.3C163.4,302.4,143.4,310.9,131.3,299.5z"/>
</svg>
