<?xml version="1.0" encoding="iso-8859-1"?>
<!-- Generator: Adobe Illustrator 21.0.0, SVG Export Plug-In . SVG Version: 6.00 Build 0)  -->
<svg xmlns="http://www.w3.org/2000/svg" xmlns:xlink="http://www.w3.org/1999/xlink" version="1.1" id="Capa_1" x="0px" y="0px" viewBox="0 0 512.002 512.002" style="enable-background:new 0 0 512.002 512.002;" xml:space="preserve" width="512" height="512" fill="white">
<g>
	<path d="M321.187,181.527C304.122,144.848,267.369,121,226.016,121s-78.105,23.848-95.171,60.527   c-52.339-5.64-99.829,36.548-99.829,89.473c0,49.629,40.371,90,90,90h210c49.629,0,90-40.371,90-90   C421.016,218.075,373.497,175.902,321.187,181.527z"/>
	<path d="M381.187,61.527C364.122,24.848,327.369,0,286.016,0s-78.105,24.848-95.171,61.527   c-52.287-5.589-101.963,36.887-99.509,93.495c7.178-1.919,14.583-3.212,22.165-3.73C138.228,114.13,180.489,91,226.016,91   s87.803,23.13,112.515,60.293c45.861,3.144,85.551,33.301,102.988,74.139c23.813-16.208,39.498-43.515,39.498-74.432   C481.016,98.075,433.467,55.946,381.187,61.527z"/>
	<ellipse transform="matrix(0.8444 -0.5357 0.5357 0.8444 -259.0996 101.974)" cx="45.988" cy="497" rx="15" ry="14.999"/>
	<ellipse transform="matrix(0.8444 -0.5357 0.5357 0.8444 -240.4267 166.261)" cx="165.988" cy="497" rx="15" ry="14.999"/>
	<ellipse transform="matrix(0.8444 -0.5357 0.5357 0.8444 -221.7537 230.5481)" cx="285.988" cy="497" rx="15" ry="14.999"/>
	<ellipse transform="matrix(0.8444 -0.5357 0.5357 0.8444 -225.6555 127.1151)" cx="105.988" cy="452" rx="15" ry="14.999"/>
	<ellipse transform="matrix(0.8444 -0.5357 0.5357 0.8444 -206.9825 191.4022)" cx="225.988" cy="452" rx="15" ry="14.999"/>
	<ellipse transform="matrix(0.8444 -0.5357 0.5357 0.8444 -188.3096 255.6893)" cx="345.988" cy="452" rx="15" ry="14.999"/>
	<ellipse transform="matrix(0.8444 -0.5357 0.5357 0.8444 -203.0808 294.8352)" cx="405.988" cy="497" rx="15" ry="14.999"/>
	<ellipse transform="matrix(0.8444 -0.5357 0.5357 0.8444 -210.8843 87.9692)" cx="45.988" cy="407" rx="15" ry="14.999"/>
	<ellipse transform="matrix(0.8444 -0.5357 0.5357 0.8444 -192.2113 152.2563)" cx="165.988" cy="407" rx="15" ry="14.999"/>
	<ellipse transform="matrix(0.8444 -0.5357 0.5357 0.8444 -173.5384 216.5434)" cx="285.988" cy="407" rx="15" ry="14.999"/>
	<ellipse transform="matrix(0.8444 -0.5357 0.5357 0.8444 -154.8654 280.8305)" cx="405.988" cy="407" rx="15" ry="14.999"/>
</g>















</svg>
