<?xml version="1.0" encoding="utf-8"?>
<!-- Generator: Adobe Illustrator 22.0.0, SVG Export Plug-In . SVG Version: 6.00 Build 0)  -->
<svg version="1.1" id="Capa_1" xmlns="http://www.w3.org/2000/svg" xmlns:xlink="http://www.w3.org/1999/xlink" x="0px" y="0px"
	 viewBox="0 0 512 512" style="enable-background:new 0 0 512 512;" xml:space="preserve">
<style type="text/css">
	.st0{fill:#ddd;}
	.st1{fill:#FFFFFF;}
</style>
<path class="st0" d="M466.7,110.5c27.3,39.4,43.9,86.7,45.4,137.9c0.1,2.6,0.1,5.2,0.1,7.9c0,25.3-3.7,49.6-10.5,72.7
	c-21.9,74.1-76.4,134.2-147,163.7c-30.3,12.7-63.6,19.7-98.6,19.7c-78.1,0-148-34.9-194.9-90c-32.4-38-53.9-85.6-59.6-137.9
	c-1-9.2-1.5-18.6-1.5-28.1c0-141.4,114.6-256,256-256C343.4,0.2,420.5,43.9,466.7,110.5z"/>
<g>
	<path class="st1" d="M98.7,319c-10.3,5-12.6,2.3-15.7-3.1l-18.9-31c-3.2-4.9-1.3-9,5.8-12.6c59.4-32.4,112.5-85.5,130.5-122.8
		c5-10.3,5-13.9-4.5-13.9h-99c-8.5,0-8.5-3.6-8.5-9.4V93.1c0-6.3,3.2-9.4,9-9.4h148c36,0,41.4,18.4,31,49
		c-8.1,22.9-20.3,45.9-36,67.9c23.4,23,53.5,40.9,74.7,53.1c4.5,2.7,5.4,6.3,2.7,10.8l-20.7,33.3c-3.2,5-5.4,5.4-12.2,2.3
		c-17.5-9.5-52.6-33.3-79.2-58.5C175.6,271.8,140.1,297.8,98.7,319z M280,494.9c-77.4,0-135.9-36.4-135.9-88.2
		c0-48.6,58.5-86.8,135.9-86.8c73.8,0,138.1,36.5,138.1,86.8C418.2,458.5,353.8,494.9,280,494.9z M280,368.9c-45,0-72,18-72,39.1
		c0,20.3,27,37.4,72,37.4c41.8,0,73.8-17.1,73.8-37.4C353.8,387.4,321.9,368.9,280,368.9z M293.5,212.8c-5.8,0-9-3.1-9-9v-33.3
		c0-8.5,3.6-8.5,9-8.5h59.4V68.4c0-7.6,4-8.6,9.4-8.6h44.5c7.7,0,8.1,3.6,8.1,8.6v233.1c0,5.8-2.7,8.5-8.6,8.5h-45
		c-5.9,0-8.5-2.7-8.5-8.1v-89.1H293.5z"/>
</g>
</svg>
