<?xml version="1.0" encoding="iso-8859-1"?>
<!-- Generator: Adobe Illustrator 21.0.0, SVG Export Plug-In . SVG Version: 6.00 Build 0)  -->
<svg xmlns="http://www.w3.org/2000/svg" xmlns:xlink="http://www.w3.org/1999/xlink" version="1.1" id="Capa_1" x="0px" y="0px" viewBox="0 0 512 512" style="enable-background:new 0 0 512 512;" xml:space="preserve" width="512" height="512" fill="white">
<g>
	<path d="M256,121c-74.443,0-135,60.557-135,135s60.557,135,135,135s135-60.557,135-135S330.443,121,256,121z"/>
	<path d="M256,91c8.291,0,15-6.709,15-15V15c0-8.291-6.709-15-15-15s-15,6.709-15,15v61C241,84.291,247.709,91,256,91z"/>
	<path d="M256,421c-8.291,0-15,6.709-15,15v61c0,8.291,6.709,15,15,15s15-6.709,15-15v-61C271,427.709,264.291,421,256,421z"/>
	<path d="M173.266,95.438c3.169,7.659,11.973,11.273,19.6,8.115c7.646-3.164,11.279-11.953,8.115-19.6l-11.484-27.715   c-3.164-7.661-11.968-11.221-19.6-8.115c-7.646,3.164-11.279,11.953-8.115,19.6L173.266,95.438z"/>
	<path d="M338.734,416.562c-3.164-7.661-11.953-11.235-19.6-8.115c-7.646,3.164-11.279,11.953-8.115,19.6l11.484,27.715   c3.169,7.659,11.973,11.273,19.6,8.115c7.646-3.164,11.279-11.953,8.115-19.6L338.734,416.562z"/>
	<path d="M319.135,103.554c7.627,3.158,16.431-0.456,19.6-8.115l11.484-27.715c3.164-7.646-0.469-16.436-8.115-19.6   c-7.603-3.12-16.421,0.454-19.6,8.115L311.02,83.954C307.855,91.601,311.488,100.39,319.135,103.554z"/>
	<path d="M192.865,408.446c-7.617-3.135-16.436,0.454-19.6,8.115l-11.484,27.715c-3.164,7.646,0.469,16.436,8.115,19.6   c7.627,3.158,16.431-0.456,19.6-8.115l11.484-27.715C204.145,420.399,200.512,411.61,192.865,408.446z"/>
	<path d="M91,256c0-8.291-6.709-15-15-15H15c-8.291,0-15,6.709-15,15s6.709,15,15,15h61C84.291,271,91,264.291,91,256z"/>
	<path d="M497,241h-61c-8.291,0-15,6.709-15,15s6.709,15,15,15h61c8.291,0,15-6.709,15-15S505.291,241,497,241z"/>
	<path d="M118.114,139.325c5.86,5.86,15.351,5.86,21.211,0c5.859-5.859,5.859-15.352,0-21.211L96.903,75.692   c-5.859-5.859-15.352-5.859-21.211,0s-5.859,15.352,0,21.211L118.114,139.325z"/>
	<path d="M393.886,372.675c-5.859-5.859-15.352-5.859-21.211,0s-5.859,15.352,0,21.211l42.422,42.422   c5.86,5.86,15.351,5.86,21.211,0c5.859-5.859,5.859-15.352,0-21.211L393.886,372.675z"/>
	<path d="M118.114,372.675l-42.422,42.422c-5.859,5.859-5.859,15.352,0,21.211c5.86,5.86,15.351,5.86,21.211,0l42.422-42.422   c5.859-5.859,5.859-15.352,0-21.211S123.974,366.815,118.114,372.675z"/>
	<path d="M393.886,139.325l42.422-42.422c5.859-5.859,5.859-15.352,0-21.211s-15.352-5.859-21.211,0l-42.422,42.422   c-5.859,5.859-5.859,15.352,0,21.211C378.534,145.185,388.026,145.185,393.886,139.325z"/>
	<path d="M103.554,319.135c-3.179-7.646-11.997-11.25-19.6-8.115l-27.715,11.484c-7.646,3.164-11.279,11.953-8.115,19.6   c3.169,7.659,11.973,11.273,19.6,8.115l27.715-11.484C103.085,335.57,106.718,326.781,103.554,319.135z"/>
	<path d="M408.446,192.865c3.169,7.659,11.973,11.273,19.6,8.115l27.715-11.484c7.646-3.164,11.279-11.953,8.115-19.6   c-3.149-7.646-11.997-11.265-19.6-8.115l-27.715,11.484C408.915,176.43,405.282,185.219,408.446,192.865z"/>
	<path d="M455.761,322.504l-27.715-11.484c-7.588-3.149-16.436,0.469-19.6,8.115s0.469,16.436,8.115,19.6l27.715,11.484   c7.627,3.158,16.431-0.456,19.6-8.115C467.04,334.457,463.407,325.668,455.761,322.504z"/>
	<path d="M56.239,189.496l27.715,11.484c7.627,3.158,16.431-0.456,19.6-8.115c3.164-7.646-0.469-16.436-8.115-19.6l-27.715-11.484   c-7.588-3.164-16.436,0.454-19.6,8.115C44.96,177.543,48.593,186.332,56.239,189.496z"/>
</g>















</svg>
